<svg width="60" height="60" viewBox="0 0 60 60" fill="none" xmlns="http://www.w3.org/2000/svg">
<path d="M30 0C13.433 0 0 13.433 0 30C0 46.567 13.433 60 30 60C46.567 60 60 46.567 60 30C60 13.433 46.567 0 30 0ZM41.9196 37.1652H38.779C38.096 37.1652 37.4464 36.8371 37.0446 36.2812L30 26.5446L22.9554 36.2812C22.5536 36.8371 21.9107 37.1652 21.221 37.1652H18.0804C17.6451 37.1652 17.3906 36.6696 17.6451 36.3147L29.5647 19.8415C29.779 19.5469 30.2143 19.5469 30.4286 19.8415L42.3482 36.3147C42.6094 36.6696 42.3549 37.1652 41.9196 37.1652Z" fill="#9F0013" fill-opacity="0.4"/>
</svg>
